# xmcd
#
# Track frame offsets:
# 150
# 11817
# 23397
# 37609
# 60367
# 72781
# 86622
# 101955
# 116919
# 131438
# 147234
# 158501
#
# Disc length: 2261 seconds
#
#
# Revision: 0
# Processed by: cddbd v1.5.2PL0 Copyright (c) Steve Scherf et al.
# Submitted via: FreeRIP 2.944 
#
DISCID=8f08d30c
DTITLE=Smiley Mountain Band - Git'ta Play Music
DYEAR=2006
DGENRE=Bluegrass
TTITLE0=Can't You Hear Me Callin'
TTITLE1=Pike County Breakdown
TTITLE2=My '59
TTITLE3=Sweet Sunny South
TTITLE4=Nowhere Bound
TTITLE5=I'm Goin back to Old Kentucky
TTITLE6=End of the Line
TTITLE7=Dance
TTITLE8=I'm On My Way Back to the Old Home
TTITLE9=Red, white n Blue
TTITLE10=Cuckoo's Nest
TTITLE11=Git'ta Play Music
EXTD=
EXTT0=
EXTT1=
EXTT2=
EXTT3=
EXTT4=
EXTT5=
EXTT6=
EXTT7=
EXTT8=
EXTT9=
EXTT10=
EXTT11=
PLAYORDER=
